<svg width="64" height="64" viewBox="0 0 64 64" fill="none" xmlns="http://www.w3.org/2000/svg">
    <g clip-path="url(#clip0_338_13)">
        <path d="M10.54 29.5571C9.29004 30.8071 9.29004 32.8371 10.54 34.0871L26.54 50.0871C27.79 51.3371 29.82 51.3371 31.07 50.0871C32.32 48.8371 32.32 46.8071 31.07 45.5571L20.52 35.0171H51.2C52.97 35.0171 54.4 33.5871 54.4 31.8171C54.4 30.0471 52.97 28.6171 51.2 28.6171H20.53L31.06 18.0771C32.31 16.8271 32.31 14.7971 31.06 13.5471C29.81 12.2971 27.78 12.2971 26.53 13.5471L10.53 29.5471L10.54 29.5571Z"
              fill="black"/>
    </g>
    <defs>
        <clipPath id="clip0_338_13">
            <rect width="44.8" height="51.2" fill="white" transform="translate(9.6001 6.21714)"/>
        </clipPath>
    </defs>
</svg>
